<?xml version="1.0" encoding="UTF-8" standalone="no"?>
<!-- Generator: Adobe Illustrator 22.0.1, SVG Export Plug-In . SVG Version: 6.00 Build 0)  -->

<svg version="1.1" id="artwork" x="0px" y="0px" viewBox="0 0 306.144 322.866" enable-background="new 0 0 306.144 322.866" xml:space="preserve"
   xmlns="http://www.w3.org/2000/svg"
   xmlns:svg="http://www.w3.org/2000/svg">
   <defs id="defs137" />
   <g id="g132">
      <rect fill="none" width="306.144" height="322.866" id="rect90" />
      <g id="g130" transform="matrix(1.4465166,0,0,1.4465166,-68.349406,-72.0531)" style="stroke-width:0.691316">
         <g id="g128" style="stroke-width:0.691316">
            <g id="g126" style="stroke-width:0.691316">
               <path fill="#294885" d="m 173.752,151.785 c -0.173,-0.693 -0.592,-2.786 -0.41,-3.342 0.178,-0.557 0.614,-1.674 0.931,-2.604 1.646,-4.779 0.891,-9.786 0.363,-10.923 -0.102,-0.22 -0.324,-0.251 -0.476,-0.274 -2.332,-0.351 -4.246,1.148 -6.57,3.94 -0.93,1.116 -1.976,1.966 -2.239,0.436 -0.176,-1.011 0.615,-3.085 -0.33,-2.991 -2.188,0.23 -3.612,1.484 -4.851,3.111 -0.954,1.258 -1.026,1.918 -2.135,1.951 -2.214,0.1 -3.245,0.191 -4.952,0.599 -1.712,0.406 -3.159,1.045 -4.185,1.679 -1.284,0.801 -2.247,2.005 -5.266,2.029 -4.834,0.041 -10.967,0.152 -13.348,0.606 -2.447,0.465 -2.794,2.02 -1.495,4.19 1.523,2.541 1.975,8.002 5.052,8.78 0.816,1.735 1.372,3.056 2.166,2.979 0.273,-0.057 0.551,-0.899 0.751,-1.676 0.426,-1.703 2.077,-1.779 3.166,-1.834 2.75,-0.14 4.882,0.016 6.74,1.062 1.272,0.717 1.894,1.992 1.654,2.485 -0.433,0.885 -1.343,-0.324 -6.062,0.632 -2.667,0.539 -4.3,1.969 -7.736,1.969 -5.12,0 -7.629,-3.467 -8.529,-6.562 -0.454,-1.554 -0.783,-3.001 -2.611,-1.291 -2.349,2.196 -2.523,6.375 -0.094,8.927 1.611,1.692 3.865,2.573 6.581,2.823 0.831,0.066 2.494,0.106 3.85,0.043 0,0 -0.387,1.062 0.197,2 0.586,0.94 2.338,1.669 5.131,0.838 3.996,-1.19 7.43,-2.301 10.18,-0.245 0.5,0.372 1.118,1.061 1.118,1.509 0,0.816 -2.998,3.157 -11.406,5.421 -10.339,2.784 -12.764,9.706 -11.717,13.49 0.094,0.346 0.317,0.683 0.579,0.698 0.287,0.015 1.87,-0.913 2.775,-1.075 1.76,-0.314 1.018,0.964 0.794,2.573 -0.798,5.739 7.359,12.978 14.563,17.965 3.989,2.761 6.135,3.703 7.141,3.703 1.03,0 3.162,-0.762 7.141,-3.703 11.229,-8.298 18.675,-19.919 17.468,-26.11 -0.685,-3.513 -2.514,-5.652 -1.641,-6.217 1.012,-0.65 3.181,1.035 3.659,0.738 1.127,-0.7 1.641,-7.203 -0.437,-14.001 -1.972,-6.461 -4.187,-9.041 -5.51,-14.328 z m -21.107,-2.151 c -0.95,0.142 -2.127,-0.365 -1.865,-0.711 0.113,-0.149 0.408,-0.54 0.182,-1.011 -0.309,-0.642 -1.299,-0.652 -1.938,-0.247 0.512,-1.16 2.166,-1.937 3.573,-1.937 1.984,0 2.442,1.13 2.322,1.995 -0.142,1.036 -1.044,1.727 -2.274,1.911 z" id="path92" style="stroke-width:0.477918" />
               <g id="g100" style="stroke-width:0.691316">
                  <path fill="#3979b5" d="m 59.801,148.265 c 1.756,-13.012 9.097,-22.679 17.249,-27.312 12.996,-7.384 25.871,-4.587 34.9,-2.55 1.339,0.303 2.427,0.111 2.845,-0.705 0.34,-0.672 0.1,-1.436 -0.959,-2.55 C 109.59,110.677 99.823,100.961 98.6,99.94 95.627,97.461 90.715,95.99 86.873,95.99 c -21.957,0 -35.849,16.698 -35.849,35.286 0,4.865 1.361,11.153 2.855,14.687 1.388,3.279 2.926,6.194 4.145,6.194 1.408,10e-4 1.519,-1.984 1.777,-3.892 z" id="path94" style="stroke-width:0.477918" />
                  <path fill="#3979b5" d="m 186.002,112.418 c -0.616,-0.468 -0.755,-1.395 -0.615,-2.802 0.93,-9.333 -0.016,-18.513 -1.882,-22.821 -2.399,-5.542 -8.139,-13.63 -12.627,-18.329 -5.824,-6.1 -7.918,-7.779 -10.6,-9.813 -0.672,-0.509 -2.12,-1.329 -2.12,-2.007 0,-0.75 1.116,-1.527 2.466,-2.152 2.517,-1.168 6.208,-2.757 12.948,-3.337 8.016,-0.689 19.439,1.04 28.065,12.063 4.868,6.222 5.549,13.749 5.549,18.842 0,6.061 -0.971,11.515 -3.852,14.662 -4.268,4.66 -13.409,13.758 -14.611,14.839 -0.583,0.524 -1.913,1.465 -2.721,0.855 z" id="path96" style="stroke-width:0.477918" />
                  <path fill="#3979b5" d="m 217.548,216.445 c 22.006,1.389 37.572,-17.146 37.572,-35.323 0,-6.911 -1.004,-10.553 -2.84,-14.393 -1.566,-3.276 -3.364,-5.497 -4.439,-5.492 -1.057,0.003 -1.376,1.547 -1.548,2.456 -4.262,22.276 -19.977,35.206 -30.674,35.381 -3.136,0.052 -6.953,-0.669 -7.293,-2.193 -0.487,-2.183 3.264,-6.84 3.264,-15.578 0,-3.538 -1.555,-9.951 -11.349,-10.337 -8.632,-0.342 -12.823,7.736 -12.823,14.882 0,14.833 10.917,29.382 30.13,30.597 z" id="path98" style="stroke-width:0.477918" />
               </g>
               <g id="g108" style="stroke-width:0.691316">
                  <path fill="#255c9e" d="m 88.598,216.445 c -22.006,1.389 -37.572,-17.146 -37.572,-35.323 0,-6.911 1.004,-10.553 2.84,-14.393 1.566,-3.276 3.364,-5.497 4.439,-5.492 1.057,0.003 1.376,1.547 1.548,2.456 4.262,22.276 19.977,35.206 30.674,35.381 3.137,0.052 6.953,-0.669 7.293,-2.193 0.487,-2.183 -3.264,-6.84 -3.264,-15.578 0,-3.538 1.555,-9.951 11.349,-10.337 8.632,-0.342 12.823,7.736 12.823,14.882 -10e-4,14.833 -10.917,29.382 -30.13,30.597 z" id="path102" style="stroke-width:0.477918" />
                  <path fill="#255c9e" d="m 120.143,112.418 c 0.616,-0.468 0.755,-1.395 0.615,-2.802 -0.93,-9.333 0.016,-18.513 1.882,-22.821 2.399,-5.542 8.14,-13.63 12.627,-18.329 5.824,-6.1 7.918,-7.779 10.6,-9.813 0.672,-0.509 2.12,-1.329 2.12,-2.007 0,-0.75 -1.116,-1.527 -2.466,-2.152 -2.517,-1.168 -6.208,-2.757 -12.948,-3.337 -8.016,-0.689 -19.439,1.04 -28.065,12.063 -4.868,6.222 -5.549,13.749 -5.549,18.842 0,6.061 0.97,11.515 3.852,14.662 4.268,4.66 13.409,13.758 14.611,14.839 0.583,0.524 1.914,1.465 2.721,0.855 z" id="path104" style="stroke-width:0.477918" />
                  <path fill="#255c9e" d="m 246.344,148.265 c -1.756,-13.012 -9.097,-22.679 -17.249,-27.312 -12.995,-7.384 -25.871,-4.587 -34.9,-2.55 -1.339,0.303 -2.427,0.111 -2.845,-0.705 -0.34,-0.672 -0.1,-1.436 0.959,-2.55 4.245,-4.471 14.013,-14.187 15.236,-15.208 2.973,-2.479 7.885,-3.95 11.727,-3.95 21.957,0 35.849,16.698 35.849,35.286 0,4.865 -1.361,11.153 -2.855,14.687 -1.388,3.279 -2.925,6.194 -4.145,6.194 -1.408,10e-4 -1.518,-1.984 -1.777,-3.892 z" id="path106" style="stroke-width:0.477918" />
               </g>
               <g id="g118" style="stroke-width:0.691316">
                  <path fill="#f9b200" d="m 95.581,121.224 c 9.76,0 22.029,3.365 26.289,6.656 1.352,1.045 1.796,2.557 -0.124,4.476 -2.51,2.509 -7.524,7.523 -9.537,9.537 -1.799,1.8 -2.506,2.859 -2.506,6.575 0,5.62 0,12.229 0,14.634 0,1.763 -0.71,2.518 -3.318,2.826 -0.666,0.078 -2.045,0.158 -3.075,0.254 -3.538,0.329 -8.133,1.628 -11.354,6.678 -4.162,6.524 -1.611,14.973 -0.478,18.247 0.824,2.377 0.682,3.796 -2.885,3.082 -9.906,-1.984 -25.182,-20.18 -24.288,-40.363 0.928,-20.937 14.726,-32.602 31.276,-32.602 z" id="path110" style="stroke-width:0.477918" />
                  <path fill="#f9b200" d="m 210.564,121.224 c -9.76,0 -22.029,3.365 -26.289,6.656 -1.352,1.045 -1.796,2.557 0.124,4.476 2.51,2.509 7.524,7.523 9.537,9.537 1.799,1.8 2.506,2.859 2.506,6.575 0,5.62 0,12.229 0,14.634 0,1.763 0.71,2.518 3.318,2.826 0.666,0.078 2.045,0.158 3.075,0.254 3.538,0.329 8.133,1.628 11.354,6.678 4.162,6.524 1.611,14.973 0.478,18.247 -0.824,2.377 -0.683,3.796 2.885,3.082 9.906,-1.984 25.183,-20.18 24.288,-40.363 -0.927,-20.937 -14.726,-32.602 -31.276,-32.602 z" id="path112" style="stroke-width:0.477918" />
                  <path fill="#f9b200" d="m 170.224,223.241 c 4.937,-3.72 7.603,-6.218 11.726,-10.438 1.902,-1.946 4.084,-2.153 6.369,0.049 3.176,3.067 7.084,5.574 12.799,6.045 2.292,0.189 3.516,-0.543 5.133,0.245 0.824,0.4 1.609,1.506 1.666,3.401 0.229,7.55 -3.38,16.295 -14.315,18.248 -7.087,1.266 -14.209,-0.881 -17.728,-4.181 -2.409,-2.255 -5.066,-4.768 -6.61,-6.853 -1.613,-2.175 -1.539,-4.636 0.96,-6.516 z" id="path114" style="stroke-width:0.477918" />
                  <path fill="#f9b200" d="m 135.921,223.241 c -4.937,-3.72 -7.603,-6.218 -11.726,-10.438 -1.901,-1.946 -4.084,-2.153 -6.369,0.049 -3.176,3.067 -7.084,5.574 -12.799,6.045 -2.292,0.189 -3.515,-0.543 -5.133,0.245 -0.824,0.4 -1.609,1.506 -1.666,3.401 -0.229,7.55 3.38,16.295 14.315,18.248 7.087,1.266 14.209,-0.881 17.728,-4.181 2.409,-2.255 5.066,-4.768 6.61,-6.853 1.614,-2.175 1.54,-4.636 -0.96,-6.516 z" id="path116" style="stroke-width:0.477918" />
               </g>
               <g id="g124" style="stroke-width:0.691316">
                  <path fill="#f49e00" d="m 126.421,91.467 c 0.942,-4.697 6.84,-13.584 12.586,-19.618 5.853,-6.146 10.956,-10.914 14.066,-10.914 3.105,0 8.209,4.768 14.064,10.914 5.747,6.034 11.646,14.921 12.585,19.618 0.943,4.697 2.215,14.511 -1.185,28.716 -0.962,4.022 -3.188,4.405 -5.703,4.405 -1.12,0 -38.405,0 -39.522,0 -2.516,0 -4.741,-0.383 -5.706,-4.405 -3.4,-14.205 -2.127,-24.019 -1.185,-28.716 z" id="path120" style="stroke-width:0.477918" />
                  <path fill="#f49e00" d="m 153.073,231.913 c 2.818,0 5.023,-1.718 6.93,-1.966 1.613,-0.21 2.653,0.29 4.13,1.77 2.141,2.145 5.225,5.501 7.274,8.015 1.478,1.813 3.483,4.839 0.73,11.892 -3.379,8.664 -15.51,20.085 -19.065,20.085 -3.555,0 -15.686,-11.422 -19.065,-20.085 -2.752,-7.053 -0.748,-10.079 0.73,-11.892 2.049,-2.514 5.133,-5.87 7.274,-8.015 1.477,-1.48 2.517,-1.98 4.13,-1.77 1.908,0.248 4.114,1.966 6.932,1.966 z" id="path122" style="stroke-width:0.477918" />
               </g>
            </g>
         </g>
      </g>
   </g>
</svg>
