<?xml version="1.0" encoding="UTF-8" standalone="no"?>
<svg height="48" width="48" version="1.1" id="svg4"
   xmlns="http://www.w3.org/2000/svg"
   xmlns:svg="http://www.w3.org/2000/svg">
   <defs id="defs8" />
   <path fill="#294885" d="m 2.2537533,39.815451 q -0.8566703,0 -1.41680092,-0.560131 -0.56013058,-0.56013 -0.56013058,-1.416801 0,-0.85667 0.56013058,-1.416801 0.56013062,-0.56013 1.41680092,-0.56013 H 45.746245 q 0.85667,0 1.416801,0.56013 0.560131,0.560131 0.560131,1.416801 0,0.856671 -0.560131,1.416801 -0.560131,0.560131 -1.416801,0.560131 z m 0,-13.83852 q -0.8566703,0 -1.41680092,-0.560131 -0.56013058,-0.560131 -0.56013058,-1.416801 0,-0.85667 0.56013058,-1.416801 0.56013062,-0.56013 1.41680092,-0.56013 H 45.746245 q 0.85667,0 1.416801,0.56013 0.560131,0.560131 0.560131,1.416801 0,0.85667 -0.560131,1.416801 -0.560131,0.560131 -1.416801,0.560131 z m 0,-13.838521 q -0.8566703,0 -1.41680092,-0.56013 -0.56013058,-0.560131 -0.56013058,-1.416801 0,-0.8566702 0.56013058,-1.4168008 Q 1.397083,8.1845476 2.2537533,8.1845476 H 45.746245 q 0.85667,0 1.416801,0.5601306 0.560131,0.5601306 0.560131,1.4168008 0,0.85667 -0.560131,1.416801 -0.560131,0.56013 -1.416801,0.56013 z" id="path2" style="stroke-width:1" />
</svg>
